<svg width="98" height="45" viewBox="0 0 98 45" fill="none" xmlns="http://www.w3.org/2000/svg">
<path d="M4 24.4545C4 24.4545 6.68293 24.4545 10.2602 34C10.2602 34 20.2031 8.99909 29.0407 4" stroke="white" stroke-width="7" stroke-linecap="round" stroke-linejoin="round"/>
<path d="M25.4413 24.2625C25.4413 22.6992 25.803 21.2992 26.5263 20.0625C27.273 18.8259 28.3113 17.8575 29.6413 17.1575C30.9713 16.4342 32.4997 16.0725 34.2263 16.0725C35.9763 16.0725 37.493 16.4342 38.7763 17.1575C40.0597 17.8575 41.0397 18.8259 41.7163 20.0625C42.4163 21.2992 42.7663 22.6992 42.7663 24.2625C42.7663 25.8259 42.4163 27.2375 41.7163 28.4975C41.0397 29.7342 40.0597 30.7142 38.7763 31.4375C37.493 32.1609 35.953 32.5225 34.1563 32.5225C32.4763 32.5225 30.9713 32.1959 29.6413 31.5425C28.3347 30.8892 27.308 29.9442 26.5613 28.7075C25.8147 27.4709 25.4413 25.9892 25.4413 24.2625ZM30.3763 24.2975C30.3763 25.0909 30.5397 25.8142 30.8663 26.4675C31.193 27.0975 31.6363 27.5992 32.1963 27.9725C32.7563 28.3459 33.3863 28.5325 34.0863 28.5325C34.8563 28.5325 35.5213 28.3459 36.0813 27.9725C36.6413 27.5992 37.073 27.0975 37.3763 26.4675C37.6797 25.8142 37.8313 25.0909 37.8313 24.2975C37.8313 23.4809 37.6797 22.7575 37.3763 22.1275C37.073 21.4975 36.6413 20.9959 36.0813 20.6225C35.5213 20.2492 34.8563 20.0625 34.0863 20.0625C33.3863 20.0625 32.7563 20.2492 32.1963 20.6225C31.6363 20.9959 31.193 21.4975 30.8663 22.1275C30.5397 22.7575 30.3763 23.4809 30.3763 24.2975ZM48.0614 10.0875H52.9614V16.7375H56.6714V20.5525H52.9614V32.1025H48.0614V20.5525H45.6814V16.7375H48.0614V10.0875ZM67.9259 32.5225C66.0592 32.5225 64.4725 32.1725 63.1659 31.4725C61.8825 30.7725 60.9025 29.8042 60.2259 28.5675C59.5492 27.3309 59.2109 25.9075 59.2109 24.2975C59.2109 22.7575 59.6075 21.3692 60.4009 20.1325C61.1942 18.8959 62.2559 17.9159 63.5859 17.1925C64.9159 16.4459 66.3975 16.0725 68.0309 16.0725C70.2242 16.0725 72.0209 16.7142 73.4209 17.9975C74.8442 19.2575 75.7659 21.0892 76.1859 23.4925L64.2859 27.2725L63.2009 24.6125L71.8109 21.7075L70.7959 22.1625C70.6092 21.5559 70.2709 21.0309 69.7809 20.5875C69.3142 20.1209 68.6025 19.8875 67.6459 19.8875C66.9225 19.8875 66.2809 20.0625 65.7209 20.4125C65.1842 20.7392 64.7642 21.2175 64.4609 21.8475C64.1809 22.4542 64.0409 23.1775 64.0409 24.0175C64.0409 24.9742 64.2159 25.7792 64.5659 26.4325C64.9159 27.0625 65.3942 27.5409 66.0009 27.8675C66.6075 28.1942 67.2842 28.3575 68.0309 28.3575C68.5675 28.3575 69.0809 28.2642 69.5709 28.0775C70.0842 27.8909 70.5859 27.6459 71.0759 27.3425L73.2459 30.9825C72.4292 31.4492 71.5425 31.8225 70.5859 32.1025C69.6525 32.3825 68.7659 32.5225 67.9259 32.5225Z" fill="white"/>
</svg>
