<svg width="131" height="49" viewBox="0 0 131 49" fill="none" xmlns="http://www.w3.org/2000/svg">
<path d="M5 31.5909C5 31.5909 9.71429 31.5909 16 44C16 44 33.4711 11.4988 49 5" stroke="#1F1F70" stroke-width="10" stroke-linecap="round" stroke-linejoin="round"/>
<path d="M37.9 33.8C37.9 31.5667 38.4167 29.5667 39.45 27.8C40.5167 26.0333 42 24.65 43.9 23.65C45.8 22.6167 47.9833 22.1 50.45 22.1C52.95 22.1 55.1167 22.6167 56.95 23.65C58.7833 24.65 60.1833 26.0333 61.15 27.8C62.15 29.5667 62.65 31.5667 62.65 33.8C62.65 36.0333 62.15 38.05 61.15 39.85C60.1833 41.6167 58.7833 43.0167 56.95 44.05C55.1167 45.0833 52.9167 45.6 50.35 45.6C47.95 45.6 45.8 45.1333 43.9 44.2C42.0333 43.2667 40.5667 41.9167 39.5 40.15C38.4333 38.3833 37.9 36.2667 37.9 33.8ZM44.95 33.85C44.95 34.9833 45.1833 36.0167 45.65 36.95C46.1167 37.85 46.75 38.5667 47.55 39.1C48.35 39.6333 49.25 39.9 50.25 39.9C51.35 39.9 52.3 39.6333 53.1 39.1C53.9 38.5667 54.5167 37.85 54.95 36.95C55.3833 36.0167 55.6 34.9833 55.6 33.85C55.6 32.6833 55.3833 31.65 54.95 30.75C54.5167 29.85 53.9 29.1333 53.1 28.6C52.3 28.0667 51.35 27.8 50.25 27.8C49.25 27.8 48.35 28.0667 47.55 28.6C46.75 29.1333 46.1167 29.85 45.65 30.75C45.1833 31.65 44.95 32.6833 44.95 33.85ZM70.2145 13.55H77.2145V23.05H82.5145V28.5H77.2145V45H70.2145V28.5H66.8145V23.05H70.2145V13.55ZM98.5922 45.6C95.9255 45.6 93.6589 45.1 91.7922 44.1C89.9589 43.1 88.5589 41.7167 87.5922 39.95C86.6255 38.1833 86.1422 36.15 86.1422 33.85C86.1422 31.65 86.7089 29.6667 87.8422 27.9C88.9755 26.1333 90.4922 24.7333 92.3922 23.7C94.2922 22.6333 96.4089 22.1 98.7422 22.1C101.876 22.1 104.442 23.0167 106.442 24.85C108.476 26.65 109.792 29.2667 110.392 32.7L93.3922 38.1L91.8422 34.3L104.142 30.15L102.692 30.8C102.426 29.9333 101.942 29.1833 101.242 28.55C100.576 27.8833 99.5589 27.55 98.1922 27.55C97.1589 27.55 96.2422 27.8 95.4422 28.3C94.6755 28.7667 94.0755 29.45 93.6422 30.35C93.2422 31.2167 93.0422 32.25 93.0422 33.45C93.0422 34.8167 93.2922 35.9667 93.7922 36.9C94.2922 37.8 94.9755 38.4833 95.8422 38.95C96.7089 39.4167 97.6755 39.65 98.7422 39.65C99.5089 39.65 100.242 39.5167 100.942 39.25C101.676 38.9833 102.392 38.6333 103.092 38.2L106.192 43.4C105.026 44.0667 103.759 44.6 102.392 45C101.059 45.4 99.7922 45.6 98.5922 45.6Z" fill="#1F1F70"/>
</svg>
